<mxfile host="app.diagrams.net" agent="Mozilla/5.0 (Windows NT 10.0; Win64; x64) AppleWebKit/537.36 (KHTML, like Gecko) Chrome/127.0.0.0 Safari/537.36" version="24.7.7">
  <diagram name="Page-1" id="d9b1e647-80fa-b4a2-5024-87a742678bcc">
    <mxGraphModel grid="1" page="1" gridSize="10" guides="1" tooltips="1" connect="1" arrows="1" fold="1" pageScale="1" pageWidth="1100" pageHeight="850" background="none" math="0" shadow="0">
      <root>
        <mxCell id="0" />
        <mxCell id="1" parent="0" />
        <mxCell id="iv0zIvA8QV_6i2rLgKY_-1" value="&lt;font style=&quot;font-size: 24px;&quot;&gt;&lt;b&gt;SISTIM INFORMASI PERPUSTAKAAN&lt;/b&gt;&lt;/font&gt;" style="rounded=1;whiteSpace=wrap;html=1;fillColor=#f8cecc;strokeColor=#b85450;" vertex="1" parent="1">
          <mxGeometry x="420" y="-505" width="300" height="100" as="geometry" />
        </mxCell>
        <mxCell id="iv0zIvA8QV_6i2rLgKY_-2" value="&lt;font style=&quot;font-size: 18px;&quot;&gt;Anggota&lt;/font&gt;" style="whiteSpace=wrap;html=1;aspect=fixed;fillColor=#dae8fc;strokeColor=#6c8ebf;" vertex="1" parent="1">
          <mxGeometry x="60" y="-720" width="120" height="120" as="geometry" />
        </mxCell>
        <mxCell id="iv0zIvA8QV_6i2rLgKY_-4" value="&lt;font style=&quot;font-size: 18px;&quot;&gt;Admin&lt;/font&gt;" style="rounded=0;whiteSpace=wrap;html=1;fillColor=#dae8fc;strokeColor=#6c8ebf;" vertex="1" parent="1">
          <mxGeometry x="450" y="-220" width="240" height="70" as="geometry" />
        </mxCell>
        <mxCell id="iv0zIvA8QV_6i2rLgKY_-5" value="&lt;font style=&quot;font-size: 18px;&quot;&gt;Kepala Perpus&lt;/font&gt;" style="rounded=0;whiteSpace=wrap;html=1;fillColor=#dae8fc;strokeColor=#6c8ebf;" vertex="1" parent="1">
          <mxGeometry x="910" y="-680" width="120" height="60" as="geometry" />
        </mxCell>
        <mxCell id="iv0zIvA8QV_6i2rLgKY_-6" value="" style="endArrow=classic;html=1;rounded=0;exitX=0.979;exitY=0.156;exitDx=0;exitDy=0;exitPerimeter=0;entryX=0.5;entryY=0;entryDx=0;entryDy=0;" edge="1" parent="1" source="iv0zIvA8QV_6i2rLgKY_-2" target="iv0zIvA8QV_6i2rLgKY_-1">
          <mxGeometry width="50" height="50" relative="1" as="geometry">
            <mxPoint x="190" y="-700" as="sourcePoint" />
            <mxPoint x="600" y="-510" as="targetPoint" />
            <Array as="points">
              <mxPoint x="570" y="-700" />
            </Array>
          </mxGeometry>
        </mxCell>
        <mxCell id="iv0zIvA8QV_6i2rLgKY_-7" value="" style="endArrow=classic;html=1;rounded=0;entryX=0.398;entryY=0.038;entryDx=0;entryDy=0;entryPerimeter=0;" edge="1" parent="1">
          <mxGeometry width="50" height="50" relative="1" as="geometry">
            <mxPoint x="182" y="-681" as="sourcePoint" />
            <mxPoint x="541.3900000000001" y="-502.20000000000005" as="targetPoint" />
            <Array as="points">
              <mxPoint x="540" y="-681" />
            </Array>
          </mxGeometry>
        </mxCell>
        <mxCell id="iv0zIvA8QV_6i2rLgKY_-8" value="" style="endArrow=classic;html=1;rounded=0;exitX=1;exitY=0.583;exitDx=0;exitDy=0;exitPerimeter=0;entryX=0.295;entryY=0.05;entryDx=0;entryDy=0;entryPerimeter=0;" edge="1" parent="1">
          <mxGeometry width="50" height="50" relative="1" as="geometry">
            <mxPoint x="180" y="-655.0400000000001" as="sourcePoint" />
            <mxPoint x="509.9749999999999" y="-501" as="targetPoint" />
            <Array as="points">
              <mxPoint x="510" y="-655" />
            </Array>
          </mxGeometry>
        </mxCell>
        <mxCell id="iv0zIvA8QV_6i2rLgKY_-9" value="" style="endArrow=classic;html=1;rounded=0;exitX=1;exitY=0.75;exitDx=0;exitDy=0;entryX=0.201;entryY=0.013;entryDx=0;entryDy=0;entryPerimeter=0;" edge="1" parent="1" source="iv0zIvA8QV_6i2rLgKY_-2" target="iv0zIvA8QV_6i2rLgKY_-1">
          <mxGeometry width="50" height="50" relative="1" as="geometry">
            <mxPoint x="180" y="-650" as="sourcePoint" />
            <mxPoint x="480" y="-510" as="targetPoint" />
            <Array as="points">
              <mxPoint x="480" y="-630" />
            </Array>
          </mxGeometry>
        </mxCell>
        <mxCell id="iv0zIvA8QV_6i2rLgKY_-10" value="&lt;font style=&quot;font-size: 14px;&quot;&gt;Pendaftaran&lt;/font&gt;" style="text;strokeColor=none;align=center;fillColor=none;html=1;verticalAlign=middle;whiteSpace=wrap;rounded=0;" vertex="1" parent="1">
          <mxGeometry x="260" y="-730" width="130" height="40" as="geometry" />
        </mxCell>
        <mxCell id="iv0zIvA8QV_6i2rLgKY_-11" value="&lt;font style=&quot;font-size: 14px;&quot;&gt;Peminjaman&lt;/font&gt;" style="text;strokeColor=none;align=center;fillColor=none;html=1;verticalAlign=middle;whiteSpace=wrap;rounded=0;" vertex="1" parent="1">
          <mxGeometry x="295" y="-705" width="60" height="30" as="geometry" />
        </mxCell>
        <mxCell id="iv0zIvA8QV_6i2rLgKY_-12" value="&lt;font style=&quot;font-size: 14px;&quot;&gt;Pengembalian&lt;/font&gt;" style="text;strokeColor=none;align=center;fillColor=none;html=1;verticalAlign=middle;whiteSpace=wrap;rounded=0;" vertex="1" parent="1">
          <mxGeometry x="295" y="-680" width="60" height="30" as="geometry" />
        </mxCell>
        <mxCell id="iv0zIvA8QV_6i2rLgKY_-13" value="&lt;font style=&quot;font-size: 14px;&quot;&gt;Keterlambatan&lt;/font&gt;" style="text;strokeColor=none;align=center;fillColor=none;html=1;verticalAlign=middle;whiteSpace=wrap;rounded=0;" vertex="1" parent="1">
          <mxGeometry x="290" y="-656" width="60" height="30" as="geometry" />
        </mxCell>
        <mxCell id="iv0zIvA8QV_6i2rLgKY_-14" value="" style="endArrow=classic;html=1;rounded=0;exitX=1;exitY=0.35;exitDx=0;exitDy=0;exitPerimeter=0;" edge="1" parent="1">
          <mxGeometry width="50" height="50" relative="1" as="geometry">
            <mxPoint x="725" y="-476" as="sourcePoint" />
            <mxPoint x="951" y="-620" as="targetPoint" />
            <Array as="points">
              <mxPoint x="950" y="-476" />
            </Array>
          </mxGeometry>
        </mxCell>
        <mxCell id="iv0zIvA8QV_6i2rLgKY_-15" value="" style="endArrow=classic;html=1;rounded=0;exitX=1;exitY=0.35;exitDx=0;exitDy=0;exitPerimeter=0;" edge="1" parent="1">
          <mxGeometry width="50" height="50" relative="1" as="geometry">
            <mxPoint x="725" y="-448" as="sourcePoint" />
            <mxPoint x="980" y="-620" as="targetPoint" />
            <Array as="points">
              <mxPoint x="980" y="-447" />
            </Array>
          </mxGeometry>
        </mxCell>
        <mxCell id="iv0zIvA8QV_6i2rLgKY_-16" value="" style="endArrow=classic;html=1;rounded=0;exitX=1;exitY=0.35;exitDx=0;exitDy=0;exitPerimeter=0;entryX=0.833;entryY=0.979;entryDx=0;entryDy=0;entryPerimeter=0;" edge="1" parent="1" target="iv0zIvA8QV_6i2rLgKY_-5">
          <mxGeometry width="50" height="50" relative="1" as="geometry">
            <mxPoint x="725" y="-421" as="sourcePoint" />
            <mxPoint x="980" y="-600" as="targetPoint" />
            <Array as="points">
              <mxPoint x="1010" y="-420" />
            </Array>
          </mxGeometry>
        </mxCell>
        <mxCell id="iv0zIvA8QV_6i2rLgKY_-17" value="&lt;font style=&quot;font-size: 14px;&quot;&gt;Laporan peminjaman&lt;/font&gt;" style="text;strokeColor=none;align=center;fillColor=none;html=1;verticalAlign=middle;whiteSpace=wrap;rounded=0;" vertex="1" parent="1">
          <mxGeometry x="760" y="-505" width="140" height="30" as="geometry" />
        </mxCell>
        <mxCell id="iv0zIvA8QV_6i2rLgKY_-18" value="&lt;font style=&quot;font-size: 14px;&quot;&gt;Laporan pengembalian&lt;/font&gt;" style="text;strokeColor=none;align=center;fillColor=none;html=1;verticalAlign=middle;whiteSpace=wrap;rounded=0;" vertex="1" parent="1">
          <mxGeometry x="770" y="-480" width="150" height="30" as="geometry" />
        </mxCell>
        <mxCell id="iv0zIvA8QV_6i2rLgKY_-19" value="Laporan sanksi" style="text;strokeColor=none;align=center;fillColor=none;html=1;verticalAlign=middle;whiteSpace=wrap;rounded=0;" vertex="1" parent="1">
          <mxGeometry x="770" y="-455" width="140" height="30" as="geometry" />
        </mxCell>
        <mxCell id="iv0zIvA8QV_6i2rLgKY_-22" value="" style="endArrow=classic;html=1;rounded=0;" edge="1" parent="1">
          <mxGeometry width="50" height="50" relative="1" as="geometry">
            <mxPoint x="420" y="-471" as="sourcePoint" />
            <mxPoint x="149" y="-600" as="targetPoint" />
            <Array as="points">
              <mxPoint x="149" y="-474" />
            </Array>
          </mxGeometry>
        </mxCell>
        <mxCell id="iv0zIvA8QV_6i2rLgKY_-23" value="" style="endArrow=classic;html=1;rounded=0;entryX=0;entryY=0.163;entryDx=0;entryDy=0;entryPerimeter=0;" edge="1" parent="1" target="iv0zIvA8QV_6i2rLgKY_-1">
          <mxGeometry width="50" height="50" relative="1" as="geometry">
            <mxPoint x="170" y="-599" as="sourcePoint" />
            <mxPoint x="178.72000000000003" y="-590.8" as="targetPoint" />
            <Array as="points">
              <mxPoint x="170" y="-490" />
            </Array>
          </mxGeometry>
        </mxCell>
        <mxCell id="iv0zIvA8QV_6i2rLgKY_-24" value="" style="endArrow=classic;html=1;rounded=0;entryX=0.438;entryY=1.042;entryDx=0;entryDy=0;entryPerimeter=0;" edge="1" parent="1">
          <mxGeometry width="50" height="50" relative="1" as="geometry">
            <mxPoint x="420" y="-455" as="sourcePoint" />
            <mxPoint x="125.55999999999995" y="-600.96" as="targetPoint" />
            <Array as="points">
              <mxPoint x="126" y="-458" />
            </Array>
          </mxGeometry>
        </mxCell>
        <mxCell id="iv0zIvA8QV_6i2rLgKY_-25" value="" style="endArrow=classic;html=1;rounded=0;" edge="1" parent="1">
          <mxGeometry width="50" height="50" relative="1" as="geometry">
            <mxPoint x="420" y="-435" as="sourcePoint" />
            <mxPoint x="107" y="-600" as="targetPoint" />
            <Array as="points">
              <mxPoint x="107" y="-438" />
            </Array>
          </mxGeometry>
        </mxCell>
        <mxCell id="iv0zIvA8QV_6i2rLgKY_-26" value="" style="endArrow=classic;html=1;rounded=0;entryX=0.094;entryY=1.021;entryDx=0;entryDy=0;entryPerimeter=0;" edge="1" parent="1">
          <mxGeometry width="50" height="50" relative="1" as="geometry">
            <mxPoint x="420" y="-417" as="sourcePoint" />
            <mxPoint x="82.27999999999997" y="-600.4800000000001" as="targetPoint" />
            <Array as="points">
              <mxPoint x="81" y="-417" />
            </Array>
          </mxGeometry>
        </mxCell>
        <mxCell id="iv0zIvA8QV_6i2rLgKY_-27" value="&lt;font style=&quot;font-size: 14px;&quot;&gt;Bukti Pinjam&lt;/font&gt;" style="text;strokeColor=none;align=center;fillColor=none;html=1;verticalAlign=middle;whiteSpace=wrap;rounded=0;" vertex="1" parent="1">
          <mxGeometry x="211" y="-514" width="80" height="30" as="geometry" />
        </mxCell>
        <mxCell id="iv0zIvA8QV_6i2rLgKY_-28" value="&lt;font style=&quot;font-size: 14px;&quot;&gt;Sanksi&lt;/font&gt;" style="text;strokeColor=none;align=center;fillColor=none;html=1;verticalAlign=middle;whiteSpace=wrap;rounded=0;" vertex="1" parent="1">
          <mxGeometry x="187" y="-440" width="80" height="30" as="geometry" />
        </mxCell>
        <mxCell id="iv0zIvA8QV_6i2rLgKY_-29" value="&lt;font style=&quot;font-size: 14px;&quot;&gt;Bukti pengembalian&lt;/font&gt;" style="text;strokeColor=none;align=center;fillColor=none;html=1;verticalAlign=middle;whiteSpace=wrap;rounded=0;" vertex="1" parent="1">
          <mxGeometry x="160" y="-459" width="150" height="30" as="geometry" />
        </mxCell>
        <mxCell id="iv0zIvA8QV_6i2rLgKY_-30" value="&lt;font style=&quot;font-size: 14px;&quot;&gt;Verifikasi&lt;/font&gt;" style="text;strokeColor=none;align=center;fillColor=none;html=1;verticalAlign=middle;whiteSpace=wrap;rounded=0;" vertex="1" parent="1">
          <mxGeometry x="198" y="-478" width="70" height="30" as="geometry" />
        </mxCell>
        <mxCell id="iv0zIvA8QV_6i2rLgKY_-31" value="&lt;font style=&quot;font-size: 14px;&quot;&gt;id_pendaftaran&lt;/font&gt;" style="text;strokeColor=none;align=center;fillColor=none;html=1;verticalAlign=middle;whiteSpace=wrap;rounded=0;" vertex="1" parent="1">
          <mxGeometry x="178" y="-490" width="135" height="20" as="geometry" />
        </mxCell>
        <mxCell id="iv0zIvA8QV_6i2rLgKY_-36" value="" style="endArrow=classic;html=1;rounded=0;exitX=0.057;exitY=-0.018;exitDx=0;exitDy=0;exitPerimeter=0;" edge="1" parent="1" source="iv0zIvA8QV_6i2rLgKY_-4">
          <mxGeometry width="50" height="50" relative="1" as="geometry">
            <mxPoint x="490" y="-430" as="sourcePoint" />
            <mxPoint x="464" y="-400" as="targetPoint" />
          </mxGeometry>
        </mxCell>
        <mxCell id="iv0zIvA8QV_6i2rLgKY_-37" value="" style="endArrow=classic;html=1;rounded=0;entryX=0.167;entryY=-0.036;entryDx=0;entryDy=0;entryPerimeter=0;" edge="1" parent="1" target="iv0zIvA8QV_6i2rLgKY_-4">
          <mxGeometry width="50" height="50" relative="1" as="geometry">
            <mxPoint x="490" y="-400" as="sourcePoint" />
            <mxPoint x="490" y="-230" as="targetPoint" />
          </mxGeometry>
        </mxCell>
        <mxCell id="iv0zIvA8QV_6i2rLgKY_-38" value="" style="endArrow=classic;html=1;rounded=0;exitX=0.829;exitY=0.988;exitDx=0;exitDy=0;exitPerimeter=0;" edge="1" parent="1" source="iv0zIvA8QV_6i2rLgKY_-1">
          <mxGeometry width="50" height="50" relative="1" as="geometry">
            <mxPoint x="670" y="-390" as="sourcePoint" />
            <mxPoint x="670" y="-220" as="targetPoint" />
          </mxGeometry>
        </mxCell>
        <mxCell id="iv0zIvA8QV_6i2rLgKY_-39" value="" style="endArrow=classic;html=1;rounded=0;" edge="1" parent="1">
          <mxGeometry width="50" height="50" relative="1" as="geometry">
            <mxPoint x="527" y="-224" as="sourcePoint" />
            <mxPoint x="527" y="-404" as="targetPoint" />
          </mxGeometry>
        </mxCell>
        <mxCell id="iv0zIvA8QV_6i2rLgKY_-40" value="" style="endArrow=classic;html=1;rounded=0;exitX=0.467;exitY=1.05;exitDx=0;exitDy=0;exitPerimeter=0;" edge="1" parent="1" source="iv0zIvA8QV_6i2rLgKY_-1">
          <mxGeometry width="50" height="50" relative="1" as="geometry">
            <mxPoint x="560" y="-390" as="sourcePoint" />
            <mxPoint x="560" y="-220" as="targetPoint" />
          </mxGeometry>
        </mxCell>
        <mxCell id="iv0zIvA8QV_6i2rLgKY_-41" value="" style="endArrow=classic;html=1;rounded=0;exitX=0.105;exitY=0;exitDx=0;exitDy=0;exitPerimeter=0;" edge="1" parent="1">
          <mxGeometry width="50" height="50" relative="1" as="geometry">
            <mxPoint x="607" y="-224" as="sourcePoint" />
            <mxPoint x="607" y="-404" as="targetPoint" />
          </mxGeometry>
        </mxCell>
        <mxCell id="iv0zIvA8QV_6i2rLgKY_-42" value="" style="endArrow=classic;html=1;rounded=0;" edge="1" parent="1">
          <mxGeometry width="50" height="50" relative="1" as="geometry">
            <mxPoint x="640" y="-405" as="sourcePoint" />
            <mxPoint x="640" y="-220" as="targetPoint" />
          </mxGeometry>
        </mxCell>
        <mxCell id="iv0zIvA8QV_6i2rLgKY_-44" value="&lt;font style=&quot;font-size: 14px;&quot;&gt;Input data buku&lt;/font&gt;" style="text;html=1;align=center;verticalAlign=middle;resizable=0;points=[];autosize=1;strokeColor=none;fillColor=none;rotation=-90;" vertex="1" parent="1">
          <mxGeometry x="392" y="-350" width="120" height="30" as="geometry" />
        </mxCell>
        <mxCell id="iv0zIvA8QV_6i2rLgKY_-45" value="&lt;font style=&quot;font-size: 14px;&quot;&gt;Bukti peminjaman&lt;/font&gt;" style="text;html=1;align=center;verticalAlign=middle;resizable=0;points=[];autosize=1;strokeColor=none;fillColor=none;rotation=-89;" vertex="1" parent="1">
          <mxGeometry x="417" y="-308" width="130" height="30" as="geometry" />
        </mxCell>
        <mxCell id="iv0zIvA8QV_6i2rLgKY_-46" value="&lt;font style=&quot;font-size: 14px;&quot;&gt;Input data pinjaman&lt;/font&gt;" style="text;html=1;align=center;verticalAlign=middle;resizable=0;points=[];autosize=1;strokeColor=none;fillColor=none;rotation=-89;" vertex="1" parent="1">
          <mxGeometry x="441" y="-340" width="150" height="30" as="geometry" />
        </mxCell>
        <mxCell id="iv0zIvA8QV_6i2rLgKY_-47" value="&lt;font style=&quot;font-size: 14px;&quot;&gt;Input data anggota&lt;/font&gt;" style="text;html=1;align=center;verticalAlign=middle;resizable=0;points=[];autosize=1;strokeColor=none;fillColor=none;rotation=-90;" vertex="1" parent="1">
          <mxGeometry x="500" y="-310" width="140" height="30" as="geometry" />
        </mxCell>
        <mxCell id="iv0zIvA8QV_6i2rLgKY_-48" value="&lt;font style=&quot;font-size: 14px;&quot;&gt;Daftar anggota&lt;/font&gt;" style="text;html=1;align=center;verticalAlign=middle;resizable=0;points=[];autosize=1;strokeColor=none;fillColor=none;rotation=-90;" vertex="1" parent="1">
          <mxGeometry x="556" y="-353" width="120" height="30" as="geometry" />
        </mxCell>
        <mxCell id="iv0zIvA8QV_6i2rLgKY_-49" value="&lt;font style=&quot;font-size: 14px;&quot;&gt;Daftar buku&lt;/font&gt;" style="text;html=1;align=center;verticalAlign=middle;resizable=0;points=[];autosize=1;strokeColor=none;fillColor=none;rotation=-90;" vertex="1" parent="1">
          <mxGeometry x="598" y="-294" width="100" height="30" as="geometry" />
        </mxCell>
        <mxCell id="iv0zIvA8QV_6i2rLgKY_-51" value="&lt;font style=&quot;font-size: 14px;&quot;&gt;Daftar pinjaman&lt;/font&gt;" style="text;html=1;align=center;verticalAlign=middle;resizable=0;points=[];autosize=1;strokeColor=none;fillColor=none;rotation=-90;" vertex="1" parent="1">
          <mxGeometry x="620" y="-309" width="120" height="30" as="geometry" />
        </mxCell>
      </root>
    </mxGraphModel>
  </diagram>
</mxfile>
